<svg id="Capa_1" enable-background="new 0 0 511.979 511.979" height="512" viewBox="0 0 511.979 511.979" width="512" xmlns="http://www.w3.org/2000/svg"><path d="m181.851 73.034c-3.843 0-7.685-1.467-10.615-4.401-5.854-5.862-5.846-15.36.016-21.213l24.589-24.54c5.863-5.854 15.359-5.847 21.213.016 5.854 5.862 5.846 15.36-.016 21.213l-24.589 24.54c-2.928 2.924-6.764 4.385-10.598 4.385z" fill="#ffcf2c"/><path d="m255.89 94.685c-3.843 0-7.685-1.467-10.615-4.401-5.854-5.862-5.846-15.36.016-21.213l28.658-28.602c5.863-5.854 15.359-5.848 21.213.016 5.854 5.862 5.846 15.36-.016 21.213l-28.658 28.602c-2.928 2.923-6.764 4.385-10.598 4.385z" fill="#ff8b6e"/><path d="m454.501 345.265c-3.843 0-7.685-1.467-10.615-4.401-5.853-5.862-5.846-15.36.016-21.214l24.589-24.539c5.863-5.852 15.36-5.847 21.213.017 5.853 5.862 5.846 15.36-.017 21.214l-24.589 24.539c-2.927 2.922-6.763 4.384-10.597 4.384z" fill="#ffa81c"/><path d="m432.832 271.325c-3.843 0-7.684-1.467-10.615-4.401-5.854-5.862-5.846-15.36.016-21.213l28.643-28.588c5.863-5.854 15.359-5.847 21.213.016 5.853 5.862 5.846 15.36-.016 21.213l-28.643 28.588c-2.928 2.924-6.764 4.385-10.598 4.385z" fill="#d9260f"/><path d="m444.67 460.541c-.785 0-1.574-.062-2.361-.187-4.743-.756-8.837-3.737-11.012-8.019l-105.103-206.85-59.402-59.311-207.167-104.936c-4.291-2.173-7.279-6.272-8.035-11.022s.811-9.574 4.215-12.973l34.619-34.566c3.915-3.91 9.663-5.344 14.955-3.739l241.931 73.43c2.356.715 4.499 1.999 6.242 3.738l62.784 62.687c1.745 1.742 3.033 3.888 3.751 6.246l73.551 241.565c1.615 5.304.172 11.066-3.751 14.984l-34.62 34.565c-2.834 2.833-6.655 4.388-10.597 4.388z" fill="#72c5fc"/><path d="m326.194 245.487 105.103 206.85c2.175 4.281 6.269 7.263 11.012 8.019.787.125 1.576.187 2.361.187 3.942 0 7.764-1.556 10.598-4.386l34.62-34.565c3.923-3.918 5.366-9.681 3.751-14.984l-73.552-241.568c-.718-2.358-2.006-4.504-3.751-6.246l-31.602-31.554-88.416 88.416z" fill="#176cad"/><path d="m208.401 511.979c-3.838 0-7.676-1.464-10.605-4.392l-193.397-193.347c-2.815-2.814-4.396-6.633-4.394-10.613.001-3.98 1.584-7.797 4.401-10.609l23.483-23.447c4.561-4.554 11.521-5.686 17.289-2.812l93.999 46.839c1.446.721 2.766 1.67 3.909 2.812l52.609 52.529c1.144 1.142 2.096 2.462 2.819 3.908l46.912 93.855c2.888 5.778 1.752 12.757-2.819 17.321l-23.607 23.57c-2.928 2.924-6.764 4.386-10.599 4.386z" fill="#72c5fc"/><path d="m197.796 507.587c2.929 2.928 6.767 4.392 10.605 4.392 3.835 0 7.67-1.462 10.598-4.385l23.607-23.57c4.572-4.564 5.707-11.543 2.819-17.321l-46.912-93.855c-.723-1.446-1.675-2.767-2.819-3.908l-26.35-26.31-68.266 68.266z" fill="#176cad"/><path d="m112.03 440.206c-3.236 0-6.508-.43-9.766-1.302-13.886-3.718-25.264-15.093-28.986-28.979-3.515-13.11.153-26.456 10.065-36.745l119.14-147.28c.333-.412.688-.807 1.063-1.182l188.496-188.205c1.147-1.146 2.375-2.232 3.648-3.224 16.635-12.962 73.327-52.819 104.546-21.646 10.021 10.005 18.754 29.282 3.453 64.305-8 18.313-19.577 34.403-24.183 40.472-1.102 1.453-2.315 2.843-3.602 4.128l-188.376 188.088c-.371.369-.76.72-1.167 1.049l-147.357 119.147c-7.73 7.449-17.187 11.374-26.974 11.374z" fill="#edeade"/><path d="m102.264 438.905c3.258.872 6.53 1.302 9.766 1.302 9.787 0 19.244-3.925 26.974-11.374l147.356-119.148c.407-.329.797-.68 1.167-1.049l188.377-188.088c1.287-1.285 2.5-2.675 3.602-4.128 4.606-6.068 16.183-22.159 24.183-40.472 15.277-34.968 6.594-54.239-3.407-64.257l-416.426 416.427c5.063 5.098 11.416 8.914 18.408 10.787z" fill="#c4c0ad"/><path d="m399.323 38.79h30v118.722h-30z" fill="#72c5fc" transform="matrix(.707 -.707 .707 .707 51.95 321.719)"/><path d="m445.683 150.723 21.229-21.196-42.232-42.232-21.213 21.213z" fill="#2698d1"/><g fill="#b2e7ff"><path d="m15.005 511.979c-3.839 0-7.678-1.465-10.606-4.394-5.858-5.857-5.858-15.355 0-21.213l21.223-21.223c5.857-5.858 15.355-5.858 21.213 0 5.858 5.857 5.858 15.355 0 21.213l-21.223 21.223c-2.93 2.929-6.768 4.394-10.607 4.394z"/><path d="m135.863 511.881c-3.839 0-7.678-1.465-10.606-4.394-5.858-5.857-5.858-15.355 0-21.213l36.213-36.214c5.858-5.857 15.355-5.857 21.213 0s5.858 15.355 0 21.213l-36.213 36.214c-2.93 2.929-6.768 4.394-10.607 4.394z"/></g></svg>